PathFileType	4	(X/Y/Z)	D:\TRACE\spotREDO_2-26-24\spot_Both_Motion_1_10-v60.trc
DataRate	CameraRate	NumFrames	NumMarkers	Units	OrigDataRate	OrigDataStartFrame	OrigNumFrames
100.00	100.00	      14	9	mm	100.00	876	      7000
Frame#	Time	front left toe			Front right toe			aft left toe			aft right toe			Arm			FL body			FR body			AL Body			AR Body			
		X1	Y1	Z1	X2	Y2	Z2	X3	Y3	Z3	X4	Y4	Z4	X5	Y5	Z5	X6	Y6	Z6	X7	Y7	Z7	X8	Y8	Z8	X9	Y9	Z9	

876	8.750	-226.01791	35.34192	-437.64255	238.82132	75.83115	-449.63580	-176.98763	8.45547	126.64558	119.60935	13.62807	186.47505	-98.56718	763.18561	-764.46246	-159.17389	616.87219	-462.19092	-3.11036	622.35596	-469.22751	-124.78745	540.78479	417.84348	17.19154	545.33655	413.73947	
877	8.760	-225.49890	35.00174	-437.77917	241.70309	88.09064	-446.79758	-177.02814	7.93789	126.66413	119.70939	13.88672	186.87276	-97.71232	762.04419	-764.58954	-159.99907	617.34045	-460.86804	-3.81529	622.32959	-467.68304	-126.42535	540.23102	418.79782	14.86115	544.82062	415.25757	
878	8.770	-224.81993	35.09604	-437.78738	243.92043	100.72129	-448.08194	-177.29944	7.27067	126.43378	120.00112	14.46662	187.57977	-97.22530	761.00659	-764.10516	-159.78923	617.44409	-460.16815	-3.73276	622.12689	-466.52353	-129.07628	540.22272	419.94934	11.95435	544.61346	416.64551	
879	8.780	-223.94664	35.28833	-438.11884	245.84763	114.16621	-450.93808	-177.22755	6.68650	126.37819	119.63298	14.86875	188.28592	-97.03580	760.32690	-763.40741	-158.87254	617.21649	-459.39682	-2.66939	621.77948	-464.94052	-132.69687	540.57208	420.94168	9.13344	544.76459	418.14120	
880	8.790	-222.71263	35.78998	-438.52249	243.74947	126.90281	-454.22565	-177.68137	6.26185	126.50633	119.84479	15.24628	188.22746	-97.40569	759.44238	-762.89697	-157.55446	616.97894	-458.91119	-1.07770	621.55920	-463.59314	-136.21849	540.33142	421.55804	5.10920	544.72400	419.61368	
881	8.800	-221.47684	36.30281	-438.94073	239.00090	138.35335	-454.53937	-178.29968	5.78870	126.25986	119.76425	15.56181	188.45573	-98.18874	759.01239	-762.16724	-155.70872	616.71887	-458.32257	0.73699	621.34235	-462.15625	-139.66698	539.90479	422.21463	1.48553	544.34192	420.85492	
882	8.810	-219.76698	36.57291	-439.27921	233.39621	145.98897	-453.87698	-178.02640	4.74074	126.27104	120.26550	15.53115	188.81607	-99.07446	758.94775	-761.53235	-153.22047	616.62671	-458.29459	2.63250	620.98370	-460.93365	-142.96695	539.85052	422.49768	-1.60075	543.89960	421.99881	
883	8.820	-218.46741	36.52992	-439.49579	227.83359	152.63374	-451.37167	-177.78481	4.53431	126.15160	120.39137	15.42968	189.25026	-100.29288	758.92316	-760.65796	-151.35255	616.42065	-457.90158	4.17529	620.66449	-460.04938	-145.59448	539.95410	422.96066	-4.40713	544.27795	423.12405	
884	8.830	-218.20363	36.66319	-439.44989	223.08612	156.93227	-449.85559	-177.42455	4.53578	125.90958	120.92745	15.88950	189.56577	-101.32299	759.03430	-760.16315	-149.63588	615.94250	-457.75122	5.91031	620.16492	-459.04025	-147.38651	539.60828	423.10269	-6.54123	544.20422	424.23196	
885	8.840	-217.14021	36.57834	-439.73541	217.78253	160.25653	-448.86865	-177.15581	4.46752	125.75464	121.17170	16.10113	189.61749	-103.02586	759.25092	-759.72766	-148.13547	615.48663	-457.37759	7.30465	619.68921	-458.12756	-149.16681	539.94611	423.74326	-7.88114	544.20691	424.99377	
886	8.850	-216.33406	36.41225	-439.68527	213.08107	162.15257	-449.83487	-176.97861	4.51909	125.51625	121.83323	16.29357	189.87509	-104.42863	759.84924	-759.67828	-147.35329	615.07581	-456.99228	8.47397	619.38275	-457.43301	-149.85327	539.74847	423.93289	-8.74791	544.43750	425.96933	
887	8.860	-215.74606	36.27463	-439.55957	207.57172	163.73535	-449.70663	-176.58020	4.22399	125.51529	122.50272	16.30369	189.71132	-105.95311	760.14246	-759.30035	-146.27991	614.62207	-456.41214	9.19902	619.11133	-456.84976	-150.21733	539.75482	424.68918	-8.89604	544.31689	426.43854	
888	8.870	-215.14972	35.81231	-439.47549	202.60127	162.66835	-448.86746	-175.77348	3.94796	125.54309	123.01713	16.03424	189.71902	-107.76353	760.46429	-759.14154	-145.76147	614.33783	-455.96524	9.43302	618.88892	-456.46860	-149.79611	539.70026	425.03107	-8.52500	544.25641	426.84750	
889	8.880	-215.44939	35.39604	-439.39114	199.71330	161.03300	-447.41614	-174.72536	4.63365	125.31959	123.37914	15.85753	189.76375	-109.08969	760.52863	-759.39191	-145.71776	613.84576	-455.67053	9.60924	618.43628	-456.24890	-148.30611	539.77130	425.24081	-7.37930	544.27545	427.07181	
